#define good_width 128
#define good_height 64
static unsigned char const good_bits[] PROGMEM = {
 0x0, 0x0, 0x0, 0x0, 0x0, 0x0, 0x0, 0x0, 0x0, 0x0, 0x0, 0x0, 0x0, 0x0, 0x0, 0x0, 0x0, 0x0, 0x0, 0x0, 0x0, 0x0, 0x0, 0x0, 0x0, 0x0, 0x0, 0x0, 0x0, 0x0, 0x0, 0x0, 0x0, 0x0, 0x0, 0x0, 0x0, 0x0, 0x0, 0x0, 0x0, 0x0, 0x0, 0x0, 0x0, 0x0, 0x0, 0x0, 0x0, 0x0, 0x0, 0x0, 0x0, 0x0, 0x0, 0x0, 0x0, 0x0, 0x0, 0x0, 0x0, 0x0, 0x0, 0x0, 0x0, 0x0, 0x0, 0x0, 0x0, 0x0, 0x0, 0x0, 0x0, 0x0, 0x0, 0x0, 0x0, 0x0, 0x0, 0x0, 0x0, 0x0, 0x0, 0x0, 0x0, 0x0, 0x0, 0xff, 0xff, 0x0, 0x0, 0x0, 0x0, 0x0, 0x0, 0x0, 0x0, 0x0, 0x0, 0x0, 0x0, 0x0, 0xf8, 0xff, 0xff, 0x1f, 0x0, 0x0, 0x0, 0x0, 0x0, 0x0, 0x0, 0x0, 0x0, 0x0, 0x0, 0x80, 0xff, 0x0, 0x0, 0xff, 0x1, 0x0, 0x0, 0x0, 0x0, 0x0, 0x0, 0x0, 0x0, 0x0, 0x0, 0xf0, 0x7, 0x0, 0x0, 0xe0, 0xf, 0x0, 0x0, 0x0, 0x0, 0x0, 0x0, 0x0, 0x0, 0x0, 0x0, 0x7c, 0x0, 0x0, 0x0, 0x0, 0x3e, 0x0, 0x0, 0x0, 0x0, 0x0, 0x0, 0x0, 0x0, 0x0, 0x0, 0xf, 0x0, 0x0, 0x0, 0x0, 0xf0, 0x0, 0x0, 0x0, 0x0, 0x0, 0x0, 0x0, 0x0, 0x0, 0xc0, 0x3, 0x0, 0x0, 0x0, 0x0, 0xc0, 0x3, 0x0, 0x0, 0x0, 0x0, 0x0, 0x0, 0x0, 0x0, 0xe0, 0x0, 0x0, 0x0, 0x0, 0x0, 0x0, 0x7, 0x0, 0x0, 0x0, 0x0, 0x0, 0x0, 0x0, 0x0, 0x38, 0x0, 0x0, 0x0, 0x0, 0x0, 0x0, 0x1c, 0x0, 0x0, 0x0, 0x0, 0x0, 0x0, 0x0, 0x0, 0x1c, 0x0, 0x0, 0x0, 0x0, 0x0, 0x0, 0x38, 0x0, 0x0, 0x0, 0x0, 0x0, 0x0, 0x0, 0x0, 0x6, 0x0, 0x0, 0x0, 0x0, 0x0, 0x0, 0x60, 0x0, 0x0, 0x0, 0x0, 0x0, 0x0, 0x0, 0x0, 0x3, 0x0, 0x0, 0x0, 0x0, 0x0, 0x0, 0xc0, 0x0, 0x0, 0x0, 0x0, 0x0, 0x0, 0x0, 0x80, 0x1, 0x0, 0x0, 0x0, 0x0, 0x0, 0x0, 0x80, 0x1, 0x0, 0x0, 0x0, 0x0, 0x0, 0x0, 0xc0, 0xf8, 0xff, 0x3, 0x0, 0x0, 0xc0, 0xff, 0x1f, 0x3, 0x0, 0x0, 0x0, 0x0, 0x0, 0x0, 0x60, 0xf8, 0xff, 0xff, 0x0, 0x0, 0xff, 0xff, 0x1f, 0x6, 0x0, 0x0, 0x0, 0x0, 0x0, 0x0, 0x60, 0xf8, 0xff, 0xff, 0xf, 0xf0, 0xff, 0xff, 0x1f, 0x6, 0x0, 0x0, 0x0, 0x0, 0x0, 0x0, 0x30, 0xf0, 0xff, 0xff, 0xff, 0xff, 0xff, 0xff, 0xf, 0xc, 0x0, 0x0, 0x0, 0x0, 0x0, 0x0, 0x18, 0xf0, 0xff, 0xff, 0xff, 0xff, 0xff, 0xff, 0xf, 0x18, 0x0, 0x0, 0x0, 0x0, 0x0, 0x0, 0x18, 0xf0, 0xff, 0xff, 0xff, 0xff, 0xff, 0xff, 0xf, 0x18, 0x0, 0x0, 0x0, 0x0, 0x0, 0x0, 0xc, 0xf0, 0xff, 0xff, 0xff, 0xff, 0xff, 0xff, 0xf, 0x30, 0x0, 0x0, 0x0, 0x0, 0x0, 0x0, 0xc, 0xe0, 0xff, 0xff, 0xff, 0xff, 0xff, 0xff, 0x7, 0x30, 0x0, 0x0, 0x0, 0x0, 0x0, 0x0, 0xc, 0xe0, 0xff, 0xff, 0x7f, 0xfe, 0xff, 0xff, 0x7, 0x30, 0x0, 0x0, 0x0, 0x0, 0x0, 0x0, 0x6, 0xe0, 0xff, 0xff, 0x7f, 0xfe, 0xff, 0xff, 0x7, 0x60, 0x0, 0x0, 0x0, 0x0, 0x0, 0x0, 0x6, 0xe0, 0xff, 0xff, 0x3f, 0xfc, 0xff, 0xff, 0x7, 0x60, 0x0, 0x0, 0x0, 0x0, 0x0, 0x0, 0x6, 0xc0, 0xff, 0xff, 0x3f, 0xfc, 0xff, 0xff, 0x3, 0x60, 0x0, 0x0, 0x0, 0x0, 0x0, 0x0, 0x6, 0xc0, 0xff, 0xff, 0x1f, 0xf8, 0xff, 0xff, 0x3, 0x60, 0x0, 0x0, 0x0, 0x0, 0x0, 0x0, 0x6, 0xc0, 0xff, 0xff, 0xf, 0xf0, 0xff, 0xff, 0x3, 0x60, 0x0, 0x0, 0x0, 0x0, 0x0, 0x0, 0x6, 0x80, 0xff, 0xff, 0x7, 0xe0, 0xff, 0xff, 0x1, 0x60, 0x0, 0x0, 0x0, 0x0, 0x0, 0x0, 0x6, 0x80, 0xff, 0xff, 0x0, 0x0, 0xff, 0xff, 0x1, 0x60, 0x0, 0x0, 0x0, 0x0, 0x0, 0x0, 0x6, 0x0, 0xfe, 0xf, 0x0, 0x0, 0xf0, 0x7f, 0x0, 0x60, 0x0, 0x0, 0x0, 0x0, 0x0, 0x0, 0x6, 0x0, 0x0, 0x0, 0x0, 0x0, 0x0, 0x0, 0x0, 0x60, 0x0, 0x0, 0x0, 0x0, 0x0, 0x0, 0x6, 0x0, 0x0, 0x0, 0x0, 0x0, 0x0, 0x0, 0x0, 0x60, 0x0, 0x0, 0x0, 0x0, 0x0, 0x0, 0xc, 0x0, 0x0, 0x0, 0x0, 0x0, 0x0, 0x0, 0x0, 0x30, 0x0, 0x0, 0x0, 0x0, 0x0, 0x0, 0xc, 0x0, 0x70, 0x0, 0x0, 0x0, 0x0, 0xe, 0x0, 0x30, 0x0, 0x0, 0x0, 0x0, 0x0, 0x0, 0xc, 0x0, 0xf8, 0x0, 0x0, 0x0, 0x0, 0x1f, 0x0, 0x30, 0x0, 0x0, 0x0, 0x0, 0x0, 0x0, 0x18, 0x0, 0xfc, 0x1, 0x0, 0x0, 0x80, 0x3f, 0x0, 0x18, 0x0, 0x0, 0x0, 0x0, 0x0, 0x0, 0x18, 0x0, 0xfc, 0x7, 0x0, 0x0, 0xe0, 0x3f, 0x0, 0x18, 0x0, 0x0, 0x0, 0x0, 0x0, 0x0, 0x30, 0x0, 0xfc, 0x1f, 0x0, 0x0, 0xf8, 0x3f, 0x0, 0xc, 0x0, 0x0, 0x0, 0x0, 0x0, 0x0, 0x60, 0x0, 0xf8, 0xff, 0x1, 0x80, 0xff, 0x1f, 0x0, 0x6, 0x0, 0x0, 0x0, 0x0, 0x0, 0x0, 0x60, 0x0, 0xf8, 0xff, 0xff, 0xff, 0xff, 0x1f, 0x0, 0x6, 0x0, 0x0, 0x0, 0x0, 0x0, 0x0, 0xc0, 0x0, 0xf0, 0xff, 0xff, 0xff, 0xff, 0xf, 0x0, 0x3, 0x0, 0x0, 0x0, 0x0, 0x0, 0x0, 0x80, 0x1, 0xe0, 0xff, 0xff, 0xff, 0xff, 0x7, 0x80, 0x1, 0x0, 0x0, 0x0, 0x0, 0x0, 0x0, 0x0, 0x3, 0xc0, 0xff, 0xff, 0xff, 0xff, 0x3, 0xc0, 0x0, 0x0, 0x0, 0x0, 0x0, 0x0, 0x0, 0x0, 0x6, 0x80, 0xff, 0xff, 0xff, 0xff, 0x1, 0x60, 0x0, 0x0, 0x0, 0x0, 0x0, 0x0, 0x0, 0x0, 0x1c, 0x0, 0xfe, 0xff, 0xff, 0x7f, 0x0, 0x30, 0x0, 0x0, 0x0, 0x0, 0x0, 0x0, 0x0, 0x0, 0x38, 0x0, 0xf0, 0xff, 0xff, 0xf, 0x0, 0x1c, 0x0, 0x0, 0x0, 0x0, 0x0, 0x0, 0x0, 0x0, 0xe0, 0x0, 0x0, 0xff, 0xff, 0x0, 0x0, 0x7, 0x0, 0x0, 0x0, 0x0, 0x0, 0x0, 0x0, 0x0, 0xc0, 0x3, 0x0, 0x0, 0x0, 0x0, 0xc0, 0x3, 0x0, 0x0, 0x0, 0x0, 0x0, 0x0, 0x0, 0x0, 0x0, 0xf, 0x0, 0x0, 0x0, 0x0, 0xf0, 0x0, 0x0, 0x0, 0x0, 0x0, 0x0, 0x0, 0x0, 0x0, 0x0, 0x7c, 0x0, 0x0, 0x0, 0x0, 0x3e, 0x0, 0x0, 0x0, 0x0, 0x0, 0x0, 0x0, 0x0, 0x0, 0x0, 0xf0, 0x7, 0x0, 0x0, 0xe0, 0xf, 0x0, 0x0, 0x0, 0x0, 0x0, 0x0, 0x0, 0x0, 0x0, 0x0, 0x80, 0xff, 0x0, 0x0, 0xff, 0x1, 0x0, 0x0, 0x0, 0x0, 0x0, 0x0, 0x0, 0x0, 0x0, 0x0, 0x0, 0xf8, 0xff, 0xff, 0x1f, 0x0, 0x0, 0x0, 0x0, 0x0, 0x0, 0x0, 0x0, 0x0, 0x0, 0x0, 0x0, 0x0, 0xff, 0xff, 0x0, 0x0, 0x0, 0x0, 0x0, 0x0, 0x0, 0x0, 0x0, 0x0, 0x0, 0x0, 0x0, 0x0, 0x0, 0x0, 0x0, 0x0, 0x0, 0x0, 0x0, 0x0, 0x0, 0x0, 0x0, 0x0, 0x0, 0x0, 0x0, 0x0, 0x0, 0x0, 0x0, 0x0, 0x0, 0x0, 0x0, 0x0, 0x0, 0x0, 0x0, 0x0, 0x0, 0x0, 0x0, 0x0, 0x0, 0x0, 0x0, 0x0, 0x0, 0x0, 0x0, 0x0, 0x0, 0x0, 0x0, 0x0, 0x0, 0x0, 0x0, 0x0, 0x0, 0x0, 0x0, 0x0, 0x0, 0x0, 0x0, 0x0, 0x0, 0x0, 0x0, 0x0, 0x0, 0x0, 0x0, 0x0, 0x0, 0x0, 0x0, 0x0, 0x0, 0x0, 0x0, 0x0, 0x0
};

